<svg xmlns="http://www.w3.org/2000/svg" width="404" height="279" viewBox="0 0 404 279">
  <g id="그룹_8" data-name="그룹 8" transform="translate(0 279)">
    <g id="그룹_5" data-name="그룹 5" transform="translate(45.5 -275.5)">
      <path id="패스_5" data-name="패스 5" d="M0,136C0,60.889,70.067,0,156.5,0S313,60.889,313,136,242.933,272,156.5,272,0,211.111,0,136Z" fill="none" stroke="#2e518e" stroke-miterlimit="8" stroke-width="7"/>
    </g>
    <g id="그룹_6" data-name="그룹 6" transform="translate(83.5 -241.5)">
      <path id="패스_6" data-name="패스 6" d="M0,102.5C0,45.891,52.83,0,118,0S236,45.891,236,102.5,183.17,205,118,205,0,159.109,0,102.5Z" fill="none" stroke="#2e518e" stroke-miterlimit="8" stroke-width="7"/>
    </g>
    <path id="패스_7" data-name="패스 7" d="M3.5-177.5h397v77H3.5Z" fill="#fff"/>
    <g id="그룹_7" data-name="그룹 7" transform="translate(3.5 -177.5)">
      <path id="패스_8" data-name="패스 8" d="M0,0H397V77H0Z" fill="none" stroke="#2e518e" stroke-miterlimit="8" stroke-width="7"/>
    </g>
    <path id="패스_9" data-name="패스 9" d="M121.95-244.068l5.468-3.339a13.973,13.973,0,0,1,.517,13.072l-1.36-.22a11.443,11.443,0,0,0,1.46-5.433,11.1,11.1,0,0,0-1.2-5.712l-4.283,2.616Zm9.4-7.471,1.118-.683,8.836,14.469-1.118.682-4.388-7.186-1.8,1.1,4.118,6.743-1.1.673-8.387-13.734,1.1-.673,3.66,5.993,1.8-1.1Z" fill="#4471c4" fill-rule="evenodd"/>
    <path id="패스_10" data-name="패스 10" d="M144.029-246.693l9.81-3.283,1.308,3.909-8.585,2.873.608,1.817,9.035-3.024.365,1.092-10.26,3.434-1.319-3.942,8.585-2.873-.594-1.775-8.585,2.873Zm-2.265-4.719.7,2.1,4.917-1.646-.7-2.1Zm-2.425-3.174,1.225-.41.839,2.509,4.917-1.646-.84-2.509,1.225-.41,2.262,6.759-7.368,2.466Zm10.243-4.04,1.225-.41,1.308,3.909,2.425-.812.371,1.109-2.425.812,1.057,3.159-1.225.41Z" fill="#4471c4" fill-rule="evenodd"/>
    <path id="패스_11" data-name="패스 11" d="M157.857-259.4l8.59-1.639.219,1.148-3.626.692.318,1.666a8.079,8.079,0,0,0,2.036,3.871,10.223,10.223,0,0,0,3.615,2.675l-.713,1.138a12.771,12.771,0,0,1-2.872-2.038,9.922,9.922,0,0,1-2.082-2.493,9.937,9.937,0,0,1-.943,3.079,13.422,13.422,0,0,1-2,3.2l-1.156-.665a9.873,9.873,0,0,0,2.421-3.983,8.707,8.707,0,0,0,.443-4.455l-.334-1.753-3.7.7Zm10.67-3.539,1.286-.245,1.291,6.769,2.884-.55.219,1.148-2.883.55,1.667,8.737-1.286.245Z" fill="#4471c4" fill-rule="evenodd"/>
    <path id="패스_12" data-name="패스 12" d="M179.124-253.864l10.665-.92.311,3.608-9.378.809.133,1.541,9.755-.841.1,1.112-11.042.952-.319-3.7,9.378-.809-.125-1.454-9.378.809Zm-2.714-2.315,15.674-1.352.1,1.112-15.674,1.352Zm1.889-7.855,10.578-.912.309,3.581-9.291.8.131,1.524,9.667-.834.1,1.112-10.954.945-.315-3.652,9.291-.8-.125-1.454-9.291.8Z" fill="#4471c4" fill-rule="evenodd"/>
    <path id="패스_13" data-name="패스 13" d="M212.934-256.333l.027,1.136q-1.2.033-5.241-.024l-.238,6.244-1.317-.05.238-6.227q-3.92-.079-5.053-.123l-.088-1.156Q208.665-256.25,212.934-256.333Zm-5.658-7.534a3.358,3.358,0,0,0-2.208.584,2.146,2.146,0,0,0-.888,1.716,2.109,2.109,0,0,0,.755,1.766,3.4,3.4,0,0,0,2.158.738,3.348,3.348,0,0,0,2.2-.576,2.125,2.125,0,0,0,.874-1.7,2.158,2.158,0,0,0-.746-1.774A3.307,3.307,0,0,0,207.276-263.867Zm.043-1.133a4.642,4.642,0,0,1,3.075,1.125,3.2,3.2,0,0,1,1.084,2.588,3.169,3.169,0,0,1-1.273,2.48,4.665,4.665,0,0,1-3.156.878,4.7,4.7,0,0,1-3.093-1.121,3.159,3.159,0,0,1-1.094-2.566,3.193,3.193,0,0,1,1.287-2.493A4.678,4.678,0,0,1,207.319-265Zm7.061-.2,1.317.05-.647,16.942-1.317-.05Z" fill="#4471c4" fill-rule="evenodd"/>
    <path id="패스_14" data-name="패스 14" d="M221.9-252.57l1.28.173-.471,3.493,9.459,1.277-.156,1.159-10.74-1.45Zm3.064-6.141a3.441,3.441,0,0,0-2.168.293,1.781,1.781,0,0,0-.965,1.368,1.808,1.808,0,0,0,.57,1.594,3.408,3.408,0,0,0,2.007.865,3.408,3.408,0,0,0,2.165-.3,1.809,1.809,0,0,0,.972-1.385,1.781,1.781,0,0,0-.568-1.575A3.441,3.441,0,0,0,224.964-258.711Zm.149-1.106a4.682,4.682,0,0,1,2.9,1.318,2.816,2.816,0,0,1,.812,2.393,2.853,2.853,0,0,1-1.423,2.1,4.654,4.654,0,0,1-3.161.518,4.619,4.619,0,0,1-2.885-1.325,2.853,2.853,0,0,1-.805-2.41,2.824,2.824,0,0,1,1.413-2.089A4.663,4.663,0,0,1,225.113-259.817Zm-.108-4.325,1.324.179-.294,2.177,4.329.584-.156,1.159-9.99-1.349.156-1.159,4.338.586Zm7.413.93,1.3.175-.876,6.489,2.535.342-.16,1.185-2.535-.342-.652,4.834-1.3-.175Z" fill="#4471c4" fill-rule="evenodd"/>
    <path id="패스_15" data-name="패스 15" d="M250.56-247.532a6.339,6.339,0,0,0-3.077-.324A1.77,1.77,0,0,0,246-246.67a1.752,1.752,0,0,0,.559,1.8,6.416,6.416,0,0,0,2.736,1.451,6.417,6.417,0,0,0,3.079.334,1.752,1.752,0,0,0,1.475-1.179,1.77,1.77,0,0,0-.564-1.814A6.344,6.344,0,0,0,250.56-247.532Zm.328-1.067a7.633,7.633,0,0,1,3.626,2.056,2.717,2.717,0,0,1,.663,2.691,2.689,2.689,0,0,1-2.058,1.837,7.7,7.7,0,0,1-4.148-.34,7.738,7.738,0,0,1-3.641-2.051,2.688,2.688,0,0,1-.673-2.675,2.716,2.716,0,0,1,2.059-1.855A7.672,7.672,0,0,1,250.888-248.6Zm.705-6.219,1.235.379-1.009,3.285,7.419,2.278-.343,1.118-15.039-4.618.343-1.117,6.385,1.961Zm-2.751-4.486,10.225,3.14a54.523,54.523,0,0,1-1.877,5.363l-1.173-.461q.7-1.726,1.444-4.163l-8.965-2.753Z" fill="#4471c4" fill-rule="evenodd"/>
    <path id="패스_16" data-name="패스 16" d="M263.029-243.165l1.15.627-1.9,3.488,8.319,4.535-.568,1.042-9.468-5.162Zm3.283-9.712,6.621,3.61a9.3,9.3,0,0,1-5.174,3.871,14.1,14.1,0,0,1-5.982.618l-.315-1.333a11.826,11.826,0,0,0,5.356-.313,7.765,7.765,0,0,0,4.189-2.542l-5.263-2.869Zm9.945,4.251,1.15.627-2.592,4.753,2.246,1.224-.564,1.034-2.246-1.224-2.772,5.085-1.15-.627Z" fill="#4471c4" fill-rule="evenodd"/>
  </g>
  <text id="ProgrammerGround" transform="translate(33.5 149.5)" fill="#e30707" font-size="40" font-family="BMJUAOTF, BM JUA_OTF"><tspan x="0" y="0">P</tspan><tspan y="0" fill="#0753e3">rogrammer</tspan><tspan y="0">G</tspan><tspan y="0" fill="#0753e3">round</tspan></text>
</svg>
